<?xml version="1.0" standalone="no"?>
<!DOCTYPE svg PUBLIC "-//W3C//DTD SVG 20010904//EN"
 "http://www.w3.org/TR/2001/REC-SVG-20010904/DTD/svg10.dtd">
<svg version="1.0" xmlns="http://www.w3.org/2000/svg"
 width="25px" height="25px" viewBox="0 0 24.000000 24.000000"
 preserveAspectRatio="xMidYMid meet">

<g transform="translate(0.000000,24.000000) scale(0.100000,-0.100000)"
fill="#000000" stroke="none">
<path d="M24 187 c-3 -8 -4 -43 -2 -78 l3 -64 95 0 95 0 0 75 0 75 -93 3 c-72
2 -94 0 -98 -11z m86 -37 c0 -5 -4 -10 -10 -10 -5 0 -10 5 -10 10 0 6 5 10 10
10 6 0 10 -4 10 -10z m70 -72 c0 -5 -27 -8 -60 -8 -60 0 -72 8 -47 29 10 8 17
7 26 -2 10 -9 16 -7 29 11 l16 24 18 -24 c9 -12 18 -26 18 -30z"/>
</g>
</svg>
