<?xml version="1.0" standalone="no"?>
<!DOCTYPE svg PUBLIC "-//W3C//DTD SVG 20010904//EN"
 "http://www.w3.org/TR/2001/REC-SVG-20010904/DTD/svg10.dtd">
<svg version="1.0" xmlns="http://www.w3.org/2000/svg"
 width="25px" height="25px" viewBox="0 0 30.000000 30.000000"
 preserveAspectRatio="xMidYMid meet">

<g transform="translate(0.000000,30.000000) scale(0.100000,-0.100000)"
fill="#000000" stroke="none">
<path d="M120 258 c0 -7 -21 -34 -47 -60 l-48 -48 63 -62 62 -63 48 48 c26 26
53 47 60 47 22 0 12 15 -56 83 -68 68 -82 77 -82 55z m65 -68 l39 -40 -82 0
c-45 0 -82 2 -82 5 0 11 63 75 74 75 7 0 30 -18 51 -40z"/>
<path d="M246 63 c-8 -21 10 -41 24 -27 11 11 3 44 -10 44 -4 0 -11 -8 -14
-17z"/>
</g>
</svg>
