<?xml version="1.0" standalone="no"?>
<!DOCTYPE svg PUBLIC "-//W3C//DTD SVG 20010904//EN"
 "http://www.w3.org/TR/2001/REC-SVG-20010904/DTD/svg10.dtd">
<svg version="1.0" xmlns="http://www.w3.org/2000/svg"
 width="25px" height="25px" viewBox="0 0 30.000000 30.000000"
 preserveAspectRatio="xMidYMid meet">

<g transform="translate(0.000000,30.000000) scale(0.100000,-0.100000)"
fill="#000000" stroke="none">
<path d="M34 257 c-2 -7 -3 -60 -2 -118 l3 -104 85 0 85 0 3 53 3 52 -40 0
c-23 0 -41 5 -41 10 0 6 18 10 40 10 35 0 40 3 40 23 0 13 -14 37 -33 55 -29
28 -40 32 -85 32 -34 0 -54 -5 -58 -13z"/>
<path d="M240 192 c0 -4 5 -13 12 -20 9 -9 6 -12 -15 -12 -15 0 -27 -4 -27
-10 0 -5 12 -10 26 -10 23 0 25 -2 14 -15 -23 -28 0 -30 27 -2 l27 26 -24 26
c-23 25 -40 32 -40 17z"/>
</g>
</svg>
