<?xml version="1.0" standalone="no"?>
<!DOCTYPE svg PUBLIC "-//W3C//DTD SVG 20010904//EN"
 "http://www.w3.org/TR/2001/REC-SVG-20010904/DTD/svg10.dtd">
<svg version="1.0" xmlns="http://www.w3.org/2000/svg"
 width="25px" height="25px" viewBox="0 0 64.000000 64.000000"
 preserveAspectRatio="xMidYMid meet">

<g transform="translate(0.000000,64.000000) scale(0.100000,-0.100000)"
fill="#000000" stroke="none">
<path d="M142 467 c-29 -29 -52 -59 -52 -68 0 -23 102 -119 127 -119 29 0 40
36 19 59 -26 29 -19 34 41 27 82 -10 135 -44 167 -108 14 -28 26 -63 26 -77 0
-37 14 -53 41 -49 22 3 24 7 23 59 -1 41 -9 70 -30 109 -45 83 -114 125 -224
137 -57 6 -60 7 -44 24 21 24 10 59 -20 59 -13 0 -42 -21 -74 -53z"/>
</g>
</svg>
